<svg width="41" height="41" viewBox="0 0 41 41" fill="none" xmlns="http://www.w3.org/2000/svg">
<path d="M34.8104 40.2208L28.8385 34.3L24.3469 38.7917L22.9177 37.3625C22.1351 36.5799 21.7437 35.6101 21.7437 34.4531C21.7437 33.2962 22.1351 32.3264 22.9177 31.5438L31.5438 22.9177C32.3264 22.1351 33.2962 21.7437 34.4531 21.7437C35.6101 21.7437 36.5799 22.1351 37.3625 22.9177L38.7917 24.3469L34.3 28.8385L40.2208 34.8104C40.6292 35.2188 40.8333 35.6951 40.8333 36.2396C40.8333 36.784 40.6292 37.2604 40.2208 37.6688L37.6688 40.2208C37.2604 40.6292 36.784 40.8333 36.2396 40.8333C35.6951 40.8333 35.2188 40.6292 34.8104 40.2208ZM40.8333 8.16667L17.6604 31.3396L17.9156 31.5438C18.6983 32.3264 19.0896 33.2962 19.0896 34.4531C19.0896 35.6101 18.6983 36.5799 17.9156 37.3625L16.4865 38.7917L11.9948 34.3L6.02292 40.2208C5.61458 40.6292 5.13819 40.8333 4.59375 40.8333C4.04931 40.8333 3.57292 40.6292 3.16458 40.2208L0.6125 37.6688C0.204167 37.2604 0 36.784 0 36.2396C0 35.6951 0.204167 35.2188 0.6125 34.8104L6.53333 28.8385L2.04167 24.3469L3.47083 22.9177C4.25347 22.1351 5.22326 21.7437 6.38021 21.7437C7.53715 21.7437 8.50694 22.1351 9.28958 22.9177L9.49375 23.1729L32.6667 0H40.8333V8.16667ZM10.1062 18.2729L0 8.16667V0H8.16667L18.2729 10.1062L15.3635 12.9646L6.48229 4.08333H4.08333V6.48229L12.9646 15.3635L10.1062 18.2729ZM14.8021 28.4302L36.75 6.48229V4.08333H34.351L12.4031 26.0312L14.8021 28.4302Z" fill="#505050"/>
</svg>
