<svg width="37" height="37" viewBox="0 0 37 37" fill="none" xmlns="http://www.w3.org/2000/svg">
<path d="M4.14153 36.75C2.40611 36.75 1.17261 35.9759 0.44101 34.4276C-0.290588 32.8793 -0.111942 31.4417 0.976947 30.1146L12.3082 16.3333V4.08333H10.2665C9.68806 4.08333 9.20316 3.88767 8.81184 3.49635C8.42052 3.10503 8.22486 2.62014 8.22486 2.04167C8.22486 1.46319 8.42052 0.978299 8.81184 0.586979C9.20316 0.19566 9.68806 0 10.2665 0H26.5999C27.1783 0 27.6632 0.19566 28.0546 0.586979C28.4459 0.978299 28.6415 1.46319 28.6415 2.04167C28.6415 2.62014 28.4459 3.10503 28.0546 3.49635C27.6632 3.88767 27.1783 4.08333 26.5999 4.08333H24.5582V16.3333L35.8895 30.1146C36.9783 31.4417 37.157 32.8793 36.4254 34.4276C35.6938 35.9759 34.4603 36.75 32.7249 36.75H4.14153ZM8.22486 30.625H28.6415L21.6999 22.4583H15.1665L8.22486 30.625ZM4.14153 32.6667H32.7249L20.4749 17.7625V4.08333H16.3915V17.7625L4.14153 32.6667Z" fill="#505050"/>
</svg>
