<svg width="45" height="37" viewBox="0 0 45 37" fill="none" xmlns="http://www.w3.org/2000/svg">
<path d="M20.4167 36.75L13.9344 30.9312C11.4844 28.7194 9.38316 26.7458 7.63073 25.0104C5.8783 23.275 4.43212 21.6417 3.29219 20.1104C2.15226 18.5792 1.31858 17.099 0.791146 15.6698C0.263715 14.2406 0 12.7434 0 11.1781C0 7.97951 1.07188 5.31684 3.21562 3.1901C5.35937 1.06337 8.03056 0 11.2292 0C12.9986 0 14.683 0.374306 16.2823 1.12292C17.8816 1.87153 19.2597 2.92639 20.4167 4.2875C21.5736 2.92639 22.9517 1.87153 24.551 1.12292C26.1503 0.374306 27.8347 0 29.6042 0C32.3604 0 34.6743 0.774132 36.5458 2.3224C38.4174 3.87066 39.6934 5.81875 40.374 8.16667H36.0354C35.4229 6.80556 34.5212 5.78472 33.3302 5.10417C32.1392 4.42361 30.8972 4.08333 29.6042 4.08333C27.8687 4.08333 26.3715 4.55122 25.1125 5.48698C23.8535 6.42274 22.6795 7.65625 21.5906 9.1875H19.2427C18.1878 7.65625 16.9884 6.42274 15.6443 5.48698C14.3002 4.55122 12.8285 4.08333 11.2292 4.08333C9.28958 4.08333 7.61371 4.75538 6.20156 6.09948C4.78941 7.44358 4.08333 9.13646 4.08333 11.1781C4.08333 12.301 4.32153 13.441 4.79792 14.5979C5.27431 15.7549 6.125 17.0905 7.35 18.6047C8.575 20.1189 10.2424 21.8884 12.3521 23.913C14.4618 25.9377 17.15 28.3792 20.4167 31.2375C21.3014 30.4549 22.3392 29.5531 23.5302 28.5323C24.7212 27.5115 25.674 26.6608 26.3885 25.9802L26.8479 26.4396L27.8432 27.4349L28.8385 28.4302L29.2979 28.8896C28.5493 29.5701 27.5965 30.4123 26.4396 31.4161C25.2826 32.42 24.2618 33.3132 23.3771 34.0958L20.4167 36.75ZM34.7083 28.5833V22.4583H28.5833V18.375H34.7083V12.25H38.7917V18.375H44.9167V22.4583H38.7917V28.5833H34.7083Z" fill="#505050"/>
</svg>
