<svg width="38" height="38" viewBox="0 0 38 38" fill="none" xmlns="http://www.w3.org/2000/svg">
<path d="M2.5 34.9C1.93333 35.2 1.375 35.1833 0.825 34.85C0.275 34.5167 0 34.0167 0 33.35V5.45C0 5.01667 0.125 4.63333 0.375 4.3C0.625 3.96667 0.95 3.71667 1.35 3.55L11.45 0L24.6 4.6L33.5 1.05C34.0667 0.783333 34.625 0.808333 35.175 1.125C35.725 1.44167 36 1.93333 36 2.6V22C35.6333 21.3 35.2 20.6583 34.7 20.075C34.2 19.4917 33.6333 18.9667 33 18.5V4.3L25.9 7V16.45C25.3667 16.5167 24.85 16.6 24.35 16.7C23.85 16.8 23.3667 16.9333 22.9 17.1V7L13.1 3.7V30.7L2.5 34.9ZM3 31.65L10.1 28.95V3.7L3 6.05V31.65ZM26.7 31.4C27.9667 31.4 29.0333 30.9667 29.9 30.1C30.7667 29.2333 31.2 28.1667 31.2 26.9C31.2 25.6333 30.7667 24.5667 29.9 23.7C29.0333 22.8333 27.9667 22.4 26.7 22.4C25.4333 22.4 24.3667 22.8333 23.5 23.7C22.6333 24.5667 22.2 25.6333 22.2 26.9C22.2 28.1667 22.6333 29.2333 23.5 30.1C24.3667 30.9667 25.4333 31.4 26.7 31.4ZM26.7 34.4C24.6333 34.4 22.8667 33.6667 21.4 32.2C19.9333 30.7333 19.2 28.9667 19.2 26.9C19.2 24.8 19.9333 23.025 21.4 21.575C22.8667 20.125 24.6333 19.4 26.7 19.4C28.8 19.4 30.575 20.125 32.025 21.575C33.475 23.025 34.2 24.8 34.2 26.9C34.2 27.6667 34.0917 28.4 33.875 29.1C33.6583 29.8 33.35 30.45 32.95 31.05L38 36.1L36.1 38L31.05 33C30.4167 33.4667 29.7417 33.8167 29.025 34.05C28.3083 34.2833 27.5333 34.4 26.7 34.4Z" fill="#D9D9D9"/>
</svg>
