<svg width="49" height="49" viewBox="0 0 49 49" fill="none" xmlns="http://www.w3.org/2000/svg">
<path d="M22.8463 36.75H26.5213V22.05H22.8463V36.75ZM24.4988 17.5175C25.0713 17.5175 25.5515 17.3297 25.9394 16.954C26.3273 16.5783 26.5213 16.1128 26.5213 15.5575C26.5213 14.9675 26.3277 14.473 25.9406 14.074C25.5535 13.6747 25.0737 13.475 24.5012 13.475C23.9287 13.475 23.4485 13.6747 23.0606 14.074C22.6727 14.473 22.4788 14.9675 22.4788 15.5575C22.4788 16.1128 22.6723 16.5783 23.0594 16.954C23.4465 17.3297 23.9263 17.5175 24.4988 17.5175ZM24.5165 49C21.138 49 17.9632 48.3569 14.9922 47.0706C12.0207 45.7844 9.42229 44.0285 7.19688 41.8031C4.97146 39.5777 3.21563 36.9779 1.92938 34.0036C0.643125 31.0293 0 27.8512 0 24.4694C0 21.0876 0.643125 17.9095 1.92938 14.9352C3.21563 11.9609 4.97146 9.37125 7.19688 7.16625C9.42229 4.96125 12.0221 3.21563 14.9965 1.92938C17.9708 0.643125 21.1488 0 24.5306 0C27.9124 0 31.0905 0.643125 34.0648 1.92938C37.0391 3.21563 39.6288 4.96125 41.8338 7.16625C44.0388 9.37125 45.7844 11.9642 47.0706 14.945C48.3569 17.9258 49 21.1053 49 24.4835C49 27.862 48.3569 31.0368 47.0706 34.0078C45.7844 36.9793 44.0388 39.574 41.8338 41.7921C39.6288 44.0098 37.0358 45.7656 34.055 47.0596C31.0742 48.3532 27.8947 49 24.5165 49ZM24.5306 45.325C30.3085 45.325 35.2188 43.2935 39.2613 39.2306C43.3038 35.1677 45.325 30.2473 45.325 24.4694C45.325 18.6915 43.3076 13.7813 39.2729 9.73875C35.2381 5.69625 30.3139 3.675 24.5 3.675C18.7425 3.675 13.8323 5.69237 9.76938 9.72711C5.70646 13.7619 3.675 18.6862 3.675 24.5C3.675 30.2575 5.70646 35.1677 9.76938 39.2306C13.8323 43.2935 18.7527 45.325 24.5306 45.325Z" fill="#505050"/>
</svg>
